<svg width="92" height="19" viewBox="0 0 92 19" fill="none" xmlns="http://www.w3.org/2000/svg">
<path d="M7.376 4.608C8.368 4.608 9.264 4.824 10.064 5.256C10.864 5.672 11.488 6.304 11.936 7.152C12.4 8 12.632 9.032 12.632 10.248V18H10.472V10.56C10.472 9.248 10.144 8.248 9.488 7.56C8.832 6.856 7.936 6.504 6.8 6.504C5.648 6.504 4.728 6.864 4.04 7.584C3.368 8.304 3.032 9.352 3.032 10.728V18H0.848V0.24H3.032V6.72C3.464 6.048 4.056 5.528 4.808 5.16C5.576 4.792 6.432 4.608 7.376 4.608ZM15.3836 11.376C15.3836 10.032 15.6556 8.856 16.1996 7.848C16.7436 6.824 17.4876 6.032 18.4316 5.472C19.3916 4.912 20.4556 4.632 21.6236 4.632C22.7756 4.632 23.7756 4.88 24.6236 5.376C25.4716 5.872 26.1036 6.496 26.5196 7.248V4.848H28.7276V18H26.5196V15.552C26.0876 16.32 25.4396 16.96 24.5756 17.472C23.7276 17.968 22.7356 18.216 21.5996 18.216C20.4316 18.216 19.3756 17.928 18.4316 17.352C17.4876 16.776 16.7436 15.968 16.1996 14.928C15.6556 13.888 15.3836 12.704 15.3836 11.376ZM26.5196 11.4C26.5196 10.408 26.3196 9.544 25.9196 8.808C25.5196 8.072 24.9756 7.512 24.2876 7.128C23.6156 6.728 22.8716 6.528 22.0556 6.528C21.2396 6.528 20.4956 6.72 19.8236 7.104C19.1516 7.488 18.6156 8.048 18.2156 8.784C17.8156 9.52 17.6156 10.384 17.6156 11.376C17.6156 12.384 17.8156 13.264 18.2156 14.016C18.6156 14.752 19.1516 15.32 19.8236 15.72C20.4956 16.104 21.2396 16.296 22.0556 16.296C22.8716 16.296 23.6156 16.104 24.2876 15.72C24.9756 15.32 25.5196 14.752 25.9196 14.016C26.3196 13.264 26.5196 12.392 26.5196 11.4ZM34.6023 0.24V18H32.4183V0.24H34.6023ZM44.0606 18.216C42.8286 18.216 41.7086 17.936 40.7006 17.376C39.7086 16.816 38.9246 16.024 38.3486 15C37.7886 13.96 37.5086 12.76 37.5086 11.4C37.5086 10.056 37.7966 8.872 38.3726 7.848C38.9646 6.808 39.7646 6.016 40.7726 5.472C41.7806 4.912 42.9086 4.632 44.1566 4.632C45.4046 4.632 46.5326 4.912 47.5406 5.472C48.5486 6.016 49.3406 6.8 49.9166 7.824C50.5086 8.848 50.8046 10.04 50.8046 11.4C50.8046 12.76 50.5006 13.96 49.8926 15C49.3006 16.024 48.4926 16.816 47.4686 17.376C46.4446 17.936 45.3086 18.216 44.0606 18.216ZM44.0606 16.296C44.8446 16.296 45.5806 16.112 46.2686 15.744C46.9566 15.376 47.5086 14.824 47.9246 14.088C48.3566 13.352 48.5726 12.456 48.5726 11.4C48.5726 10.344 48.3646 9.448 47.9486 8.712C47.5326 7.976 46.9886 7.432 46.3166 7.08C45.6446 6.712 44.9166 6.528 44.1326 6.528C43.3326 6.528 42.5966 6.712 41.9246 7.08C41.2686 7.432 40.7406 7.976 40.3406 8.712C39.9406 9.448 39.7406 10.344 39.7406 11.4C39.7406 12.472 39.9326 13.376 40.3166 14.112C40.7166 14.848 41.2446 15.4 41.9006 15.768C42.5566 16.12 43.2766 16.296 44.0606 16.296Z" fill="#0A0908"/>
<path d="M52.6201 11.352C52.6201 9.976 52.9001 8.776 53.4601 7.752C54.0201 6.712 54.7961 5.912 55.7881 5.352C56.7801 4.776 57.9161 4.488 59.1961 4.488C60.8441 4.488 62.2041 4.904 63.2761 5.736C64.3641 6.552 65.0921 7.704 65.4601 9.192H61.8361C61.6441 8.616 61.3161 8.168 60.8521 7.848C60.4041 7.512 59.8441 7.344 59.1721 7.344C58.2121 7.344 57.4521 7.696 56.8921 8.4C56.3321 9.088 56.0521 10.072 56.0521 11.352C56.0521 12.616 56.3321 13.6 56.8921 14.304C57.4521 14.992 58.2121 15.336 59.1721 15.336C60.5321 15.336 61.4201 14.728 61.8361 13.512H65.4601C65.0921 14.952 64.3641 16.096 63.2761 16.944C62.1881 17.792 60.8281 18.216 59.1961 18.216C57.9161 18.216 56.7801 17.936 55.7881 17.376C54.7961 16.8 54.0201 16 53.4601 14.976C52.9001 13.936 52.6201 12.728 52.6201 11.352ZM67.0576 11.304C67.0576 9.96 67.3216 8.768 67.8496 7.728C68.3936 6.688 69.1216 5.888 70.0336 5.328C70.9616 4.768 71.9936 4.488 73.1296 4.488C74.1216 4.488 74.9856 4.688 75.7216 5.088C76.4736 5.488 77.0736 5.992 77.5216 6.6V4.704H80.9056V18H77.5216V16.056C77.0896 16.68 76.4896 17.2 75.7216 17.616C74.9696 18.016 74.0976 18.216 73.1056 18.216C71.9856 18.216 70.9616 17.928 70.0336 17.352C69.1216 16.776 68.3936 15.968 67.8496 14.928C67.3216 13.872 67.0576 12.664 67.0576 11.304ZM77.5216 11.352C77.5216 10.536 77.3616 9.84 77.0416 9.264C76.7216 8.672 76.2896 8.224 75.7456 7.92C75.2016 7.6 74.6176 7.44 73.9936 7.44C73.3696 7.44 72.7936 7.592 72.2656 7.896C71.7376 8.2 71.3056 8.648 70.9696 9.24C70.6496 9.816 70.4896 10.504 70.4896 11.304C70.4896 12.104 70.6496 12.808 70.9696 13.416C71.3056 14.008 71.7376 14.464 72.2656 14.784C72.8096 15.104 73.3856 15.264 73.9936 15.264C74.6176 15.264 75.2016 15.112 75.7456 14.808C76.2896 14.488 76.7216 14.04 77.0416 13.464C77.3616 12.872 77.5216 12.168 77.5216 11.352ZM88.0993 7.464V13.896C88.0993 14.344 88.2033 14.672 88.4113 14.88C88.6353 15.072 89.0033 15.168 89.5153 15.168H91.0753V18H88.9633C86.1313 18 84.7153 16.624 84.7153 13.872V7.464H83.1313V4.704H84.7153V1.416H88.0993V4.704H91.0753V7.464H88.0993Z" fill="#54BAB9"/>
</svg>
